<?xml version="1.0" standalone="no"?>
<!DOCTYPE svg PUBLIC "-//W3C//DTD SVG 20010904//EN"
 "http://www.w3.org/TR/2001/REC-SVG-20010904/DTD/svg10.dtd">
<svg version="1.0" xmlns="http://www.w3.org/2000/svg"
 width="488.000000pt" height="511.000000pt" viewBox="0 0 488.000000 511.000000"
 preserveAspectRatio="xMidYMid meet">

<g transform="translate(0.000000,511.000000) scale(0.100000,-0.100000)"
fill="#000000" stroke="none">
<path d="M1632 4213 c-59 -12 -144 -138 -184 -273 -35 -120 -35 -336 0 -472
l10 -38 -47 -20 c-61 -28 -115 -82 -141 -143 -18 -41 -21 -65 -19 -136 3 -80
1 -89 -25 -135 -24 -39 -30 -64 -34 -126 -4 -67 -1 -85 20 -131 14 -30 34 -65
46 -79 20 -24 20 -25 2 -60 -44 -86 -42 -200 4 -293 24 -48 24 -50 6 -81 -56
-98 -47 -223 24 -328 18 -27 18 -29 -1 -60 -31 -53 -46 -123 -40 -182 4 -43 0
-66 -19 -113 -31 -75 -30 -84 9 -111 l32 -22 15 64 c9 35 24 76 34 91 15 23
16 33 6 73 -15 61 1 128 46 186 19 25 34 49 34 54 0 4 -14 21 -31 38 -87 82
-96 201 -23 306 23 32 26 43 16 56 -54 77 -72 119 -72 175 0 58 27 133 56 158
22 18 17 43 -17 75 -48 45 -73 101 -73 164 -1 71 40 168 56 133 2 -5 28 -25
59 -46 52 -35 57 -42 64 -85 10 -69 28 -106 80 -161 63 -68 133 -94 233 -89
54 3 72 0 72 -10 0 -7 11 -35 25 -63 64 -125 210 -199 397 -199 177 0 305 58
379 173 21 33 39 70 39 81 0 20 4 21 78 18 66 -3 86 0 136 22 97 43 161 126
173 226 5 46 8 50 69 90 35 23 68 39 74 35 18 -11 40 -76 40 -120 0 -57 -29
-122 -74 -164 -41 -39 -45 -60 -16 -86 34 -30 53 -97 48 -169 -3 -54 -10 -74
-36 -111 -38 -55 -39 -65 -8 -113 32 -49 48 -114 40 -160 -9 -49 -41 -112 -70
-137 -32 -27 -30 -44 10 -104 37 -55 51 -123 38 -181 -7 -27 -4 -44 12 -75 11
-22 25 -64 31 -92 l11 -53 32 23 c37 25 38 50 7 123 -12 26 -18 68 -19 129 -1
78 -5 97 -28 137 l-27 48 34 56 c54 89 58 186 13 287 l-22 48 29 57 c25 49 29
68 29 138 0 67 -5 90 -25 132 -24 48 -25 53 -9 67 36 32 64 109 68 182 4 79
-7 123 -44 179 -22 31 -24 41 -15 67 41 115 -44 285 -163 328 -41 15 -42 21
-21 99 25 87 22 295 -4 400 -76 302 -244 400 -348 203 -42 -80 -55 -130 -88
-336 -6 -35 -9 -38 -28 -31 -12 4 -51 9 -85 10 -52 2 -69 6 -90 27 -48 44 -92
61 -167 61 -76 1 -130 -18 -176 -61 -22 -20 -39 -25 -90 -27 -35 -2 -74 -7
-86 -11 -20 -6 -22 -3 -28 52 -4 32 -18 106 -31 165 -43 184 -116 270 -212
251z m64 -90 c45 -45 93 -210 108 -369 6 -62 4 -77 -15 -113 -20 -39 -23 -41
-69 -41 -60 0 -109 -20 -160 -67 -23 -20 -42 -34 -44 -32 -3 2 -10 42 -16 89
-27 190 21 412 110 513 35 41 59 46 86 20z m1194 -15 c91 -99 142 -356 110
-547 l-12 -73 -37 37 c-47 49 -104 75 -166 75 -49 0 -51 1 -73 44 -22 42 -23
48 -12 122 29 201 51 282 96 342 31 41 57 41 94 0z m-564 -348 c15 -6 44 -29
64 -52 38 -41 38 -41 82 -30 86 22 161 -22 191 -111 l14 -42 74 0 c106 0 161
-35 189 -121 8 -25 19 -35 38 -39 150 -31 210 -101 200 -236 -5 -67 -19 -86
-97 -132 l-30 -18 -14 34 c-52 122 -197 195 -333 167 -90 -19 -177 -87 -209
-162 -17 -43 -16 -43 -58 -24 -109 49 -222 53 -336 13 -41 -15 -76 -25 -77
-24 -1 1 -11 20 -22 43 -60 118 -194 182 -326 154 -93 -19 -151 -67 -221 -184
-9 -15 -16 -12 -66 24 -31 22 -59 50 -63 62 -13 50 -6 115 19 164 35 70 73 95
178 118 21 5 33 18 47 51 37 86 76 110 180 110 l74 0 16 41 c36 94 99 133 187
114 46 -11 47 -10 87 28 23 22 50 44 61 50 25 14 115 15 151 2z m-528 -655
c167 -50 217 -252 91 -372 -38 -36 -105 -63 -156 -63 -46 0 -136 44 -167 81
-41 48 -60 129 -46 189 20 83 86 150 167 169 54 13 54 13 111 -4z m1072 -19
c56 -28 106 -99 116 -162 19 -130 -91 -255 -225 -254 -42 0 -116 32 -149 63
-89 83 -88 242 2 326 14 13 49 32 78 43 63 22 113 17 178 -16z m-470 -159 c63
-31 65 -33 71 -78 9 -61 41 -120 89 -165 46 -42 50 -66 21 -123 -41 -79 -124
-131 -245 -152 -199 -34 -406 60 -432 196 -5 30 -1 37 33 69 44 40 93 131 93
173 0 42 18 60 85 88 47 19 78 25 140 25 70 0 88 -4 145 -33z"/>
<path d="M1673 2991 c-62 -39 -72 -108 -24 -160 58 -62 164 -32 177 49 14 92
-77 158 -153 111z"/>
<path d="M2704 2976 c-46 -46 -48 -104 -5 -147 43 -43 101 -41 147 5 51 51 43
119 -18 156 -49 30 -84 26 -124 -14z"/>
<path d="M2130 2795 c-17 -21 -4 -50 38 -81 48 -36 52 -42 52 -86 0 -35 2 -38
30 -38 28 0 30 2 30 40 0 21 6 44 13 49 72 58 88 76 85 94 -2 11 -10 25 -20
30 -13 9 -25 3 -57 -26 -39 -35 -43 -37 -69 -23 -15 8 -36 23 -46 35 -22 25
-39 27 -56 6z"/>
<path d="M1745 2147 c-6 -7 -21 -27 -33 -44 -13 -18 -30 -33 -37 -33 -28 0
-64 -23 -74 -49 -8 -18 -8 -80 -2 -206 5 -99 9 -180 8 -180 -1 0 -30 -14 -65
-30 -70 -33 -95 -55 -90 -82 5 -29 38 -26 116 12 40 19 78 35 85 34 6 0 25
-28 41 -61 17 -36 50 -81 79 -109 49 -47 50 -49 36 -75 -8 -15 -37 -52 -65
-81 l-51 -55 25 -9 c43 -17 64 -6 115 56 31 38 54 59 65 57 29 -6 230 -80 264
-98 50 -26 141 -22 203 9 28 14 97 42 154 61 88 31 106 34 113 22 4 -8 26 -38
49 -66 38 -48 44 -52 72 -46 48 10 49 18 10 61 -20 22 -47 57 -61 77 l-24 38
50 46 c33 28 63 69 83 110 17 35 36 64 42 64 5 0 43 -16 83 -35 80 -38 109
-43 118 -19 11 27 -10 48 -85 84 l-72 35 6 182 c5 124 3 190 -4 207 -11 23
-47 46 -73 46 -7 0 -27 20 -45 45 -39 54 -48 55 -157 16 -147 -53 -255 -114
-342 -195 l-32 -30 -38 36 c-82 78 -199 143 -349 194 -80 27 -103 29 -118 11z
m116 -86 c99 -34 288 -136 275 -148 -2 -2 -69 18 -148 46 -79 28 -147 51 -150
51 -3 0 -22 7 -42 15 -32 14 -35 18 -26 35 13 25 23 25 91 1z m869 4 c8 -10 9
-19 4 -25 -5 -4 -67 -28 -139 -53 -71 -25 -150 -52 -175 -60 -38 -14 -63 -15
-49 -3 27 23 131 79 194 106 131 54 146 57 165 35z m-920 -120 c52 -18 129
-45 170 -60 41 -15 89 -32 107 -38 l32 -10 3 -269 c2 -149 2 -271 0 -273 -3
-3 -181 61 -188 68 -3 3 8 29 25 59 53 94 40 168 -29 168 -19 0 -21 4 -15 31
15 65 -65 89 -180 54 -27 -8 -52 -12 -55 -9 -3 3 -7 78 -8 166 l-4 160 24 -7
c12 -4 66 -22 118 -40z m1022 -117 c-2 -90 -6 -164 -7 -166 -2 -2 -27 4 -56
12 -75 23 -144 21 -169 -4 -23 -23 -24 -33 -10 -61 9 -16 7 -19 -12 -19 -13 0
-34 -7 -46 -16 -33 -23 -29 -75 13 -151 19 -35 33 -63 32 -63 -2 0 -48 -16
-102 -35 l-98 -34 5 269 c2 149 7 272 10 275 8 8 414 152 433 154 7 1 9 -53 7
-161z m-522 -239 c0 -119 -3 -244 -6 -278 l-7 -61 -47 0 -47 0 -6 167 c-4 91
-7 216 -7 277 l0 111 60 0 60 0 0 -216z"/>
</g>
</svg>
